<svg viewBox="0 0 100 100" xmlns="http://www.w3.org/2000/svg" xmlns:xlink="http://www.w3.org/1999/xlink" width="100.000000" height="100.000000" fill="none">
	<defs>
		<radialGradient id="paint_radial_40" cx="0" cy="0" r="1" gradientUnits="userSpaceOnUse" gradientTransform="matrix(0,-50,50,0,50,50)">
			<stop stop-color="rgb(120,125,133)" offset="0" stop-opacity="1" />
			<stop stop-color="rgb(72,76,83)" offset="0.180000007" stop-opacity="1" />
			<stop stop-color="rgb(36,39,45)" offset="0.449999988" stop-opacity="1" />
			<stop stop-color="rgb(19,21,25)" offset="0.75" stop-opacity="1" />
			<stop stop-color="rgb(8,9,12)" offset="1" stop-opacity="1" />
		</radialGradient>
		<radialGradient id="paint_radial_41" cx="0" cy="0" r="1" gradientUnits="userSpaceOnUse" gradientTransform="matrix(0,-50,50,0,50,50)">
			<stop stop-color="rgb(0,0,0)" offset="0.720000029" stop-opacity="0" />
			<stop stop-color="rgb(0,0,0)" offset="0.959999979" stop-opacity="0.379999995" />
			<stop stop-color="rgb(0,0,0)" offset="1" stop-opacity="0.5" />
		</radialGradient>
		<radialGradient id="paint_radial_42" cx="0" cy="0" r="1" gradientUnits="userSpaceOnUse" gradientTransform="matrix(0,-50,50,0,50,50)">
			<stop stop-color="rgb(216,201,164)" offset="0" stop-opacity="0.239999995" />
			<stop stop-color="rgb(216,201,164)" offset="1" stop-opacity="0" />
		</radialGradient>
		<radialGradient id="paint_radial_43" cx="0" cy="0" r="1" gradientUnits="userSpaceOnUse" gradientTransform="matrix(0,-9,15,0,15,9)">
			<stop stop-color="rgb(255,255,255)" offset="0" stop-opacity="0.949999988" />
			<stop stop-color="rgb(255,255,255)" offset="0.449999988" stop-opacity="0.349999994" />
			<stop stop-color="rgb(255,255,255)" offset="1" stop-opacity="0" />
		</radialGradient>
		<radialGradient id="paint_radial_44" cx="0" cy="0" r="1" gradientUnits="userSpaceOnUse" gradientTransform="matrix(0,-16,25,0,25,16)">
			<stop stop-color="rgb(255,255,255)" offset="0" stop-opacity="0.5" />
			<stop stop-color="rgb(255,255,255)" offset="1" stop-opacity="0" />
		</radialGradient>
	</defs>
	<rect id="B2" width="100.000000" height="100.000000" x="0.000000" y="0.000000" />
	<g id="stoneB">
		<circle id="椭圆 919" cx="50" cy="50" r="50" fill="url(#paint_radial_40)" />
		<circle id="椭圆 920" cx="50" cy="50" r="50" fill="url(#paint_radial_41)" />
		<circle id="椭圆 921" cx="50" cy="50" r="50" fill="url(#paint_radial_42)" />
		<ellipse id="椭圆 922" rx="14.999999" ry="8.999999" cx="14.999999" cy="8.99999905" fill="url(#paint_radial_43)" transform="matrix(0.882948,0.469472,-0.469472,0.882948,61.9811,13.0112)" />
		<ellipse id="椭圆 923" rx="25.000000" ry="16.000000" cx="25" cy="16" opacity="0.300000012" fill="url(#paint_radial_44)" transform="matrix(0.913545,0.406737,-0.406737,0.913545,63.6692,17.2148)" />
		<path id="矢量 832" d="M62 1.5C70.8285 3.68861 78.8927 8.244 85.3244 14.6756C91.756 21.1073 96.3114 29.1715 98.5 38" fill-rule="nonzero" stroke="rgb(255,255,255)" stroke-opacity="0.300000012" stroke-linecap="round" stroke-width="2.000000" />
	</g>
	<g id="fA3B">
		<path id="矢量 833" d="M6 34C20.6667 30 35.3333 30 50 34C64.6667 38 79.3333 38 94 34" fill-rule="nonzero" stroke="rgb(255,255,255)" stroke-opacity="0.0900000036" stroke-linecap="round" stroke-width="0.900000" />
		<path id="矢量 834" d="M6 40C20.6667 44 35.3333 44 50 40C64.6667 36 79.3333 36 94 40" fill-rule="nonzero" stroke="rgb(255,255,255)" stroke-opacity="0.0599999987" stroke-linecap="round" stroke-width="0.800000" />
		<path id="矢量 835" d="M4 54C19.3333 50 34.6667 50 50 54C65.3333 58 80.6667 58 96 54" fill-rule="nonzero" stroke="rgb(255,255,255)" stroke-opacity="0.0900000036" stroke-linecap="round" stroke-width="0.900000" />
		<path id="矢量 836" d="M4 60C19.3333 64 34.6667 64 50 60C65.3333 56 80.6667 56 96 60" fill-rule="nonzero" stroke="rgb(255,255,255)" stroke-opacity="0.0599999987" stroke-linecap="round" stroke-width="0.800000" />
		<path id="矢量 837" d="M8 74C22 70 36 70 50 74C64 78 78 78 92 74" fill-rule="nonzero" stroke="rgb(255,255,255)" stroke-opacity="0.0500000007" stroke-linecap="round" stroke-width="0.800000" />
	</g>
</svg>
